<svg xmlns="http://www.w3.org/2000/svg" width="2560" height="1440" viewBox="0 0 2560 1440">
  <defs>
    <radialGradient id="bg" cx="35%" cy="30%" r="80%">
      <stop offset="0%" stop-color="#123743"/>
      <stop offset="45%" stop-color="#0b0d12"/>
      <stop offset="100%" stop-color="#05060a"/>
    </radialGradient>

    <linearGradient id="aether" x1="0" y1="0" x2="1" y2="1">
      <stop offset="0%" stop-color="#88c0d0" stop-opacity="0.18"/>
      <stop offset="60%" stop-color="#81a1c1" stop-opacity="0.06"/>
      <stop offset="100%" stop-color="#000000" stop-opacity="0"/>
    </linearGradient>

    <filter id="blur">
      <feGaussianBlur stdDeviation="60"/>
    </filter>
  </defs>

  <rect width="2560" height="1440" fill="url(#bg)"/>
  <rect width="2560" height="1440" fill="url(#aether)"/>

  <g filter="url(#blur)" opacity="0.22">
    <circle cx="560" cy="420" r="300" fill="#88c0d0"/>
    <circle cx="1940" cy="930" r="360" fill="#81a1c1"/>
    <circle cx="1280" cy="1200" r="260" fill="#5e81ac"/>
  </g>

  <g opacity="0.24" stroke="#88c0d0" stroke-width="2" fill="none">
    <path d="M420 380 L780 260 L1120 440 L920 760 L520 720 Z"/>
    <path d="M1740 820 L2050 690 L2240 920 L1990 1160 L1650 1060 Z"/>
    <path d="M1320 180 L1510 260 L1440 460 L1220 440 L1170 260 Z"/>
  </g>

  <g opacity="0.12" stroke="#e5e9f0" stroke-width="1">
    <path d="M0 240 H2560"/>
    <path d="M0 720 H2560"/>
    <path d="M0 1200 H2560"/>
    <path d="M420 0 V1440"/>
    <path d="M1280 0 V1440"/>
    <path d="M2140 0 V1440"/>
  </g>

  <text x="1280" y="735" text-anchor="middle"
        font-family="JetBrains Mono, monospace"
        font-size="78"
        fill="#e5e9f0"
        opacity="0.76">
    Aetherelix
  </text>

  <text x="1280" y="805" text-anchor="middle"
        font-family="JetBrains Mono, monospace"
        font-size="25"
        fill="#88c0d0"
        opacity="0.86">
    Fedora Hyprland Remix
  </text>
</svg>
